<svg width="18" height="18" viewBox="0 0 18 18" fill="none" xmlns="http://www.w3.org/2000/svg">
<mask id="mask0_35_90" style="mask-type:luminance" maskUnits="userSpaceOnUse" x="0" y="0" width="18" height="18">
<path d="M18 0H0V18H18V0Z" fill="white"/>
</mask>
<g mask="url(#mask0_35_90)">
<path d="M9 0C4.02949 0 0 4.02949 0 9C0 13.2206 2.90592 16.7623 6.82597 17.735V11.7504H4.97017V9H6.82597V7.81489C6.82597 4.75163 8.21231 3.3318 11.2198 3.3318C11.79 3.3318 12.7739 3.44376 13.1764 3.55536V6.04838C12.964 6.02602 12.595 6.01489 12.1367 6.01489C10.661 6.01489 10.0908 6.57397 10.0908 8.02729V9H13.0306L12.5255 11.7504H10.0908V17.9341C14.5472 17.3959 18.0004 13.6015 18.0004 9C18 4.02949 13.9705 0 9 0Z" fill="white"/>
</g>
</svg>
